<svg xmlns="http://www.w3.org/2000/svg" viewBox="0 0 168 40" fill="none" role="img" aria-label="Hiato">
  <g transform="translate(0,2) scale(0.5625)">
    <rect x="5" y="16" width="16" height="32" rx="5" fill="#eef5f0" stroke="#3d6b55" stroke-width="2"/>
    <path d="M10.2 24.5v15M15.8 24.5v15M10.2 32h5.6" stroke="#3d6b55" stroke-width="2.1" stroke-linecap="round" stroke-linejoin="round"/>
    <rect x="24" y="16" width="16" height="32" rx="5" fill="#f7f6f3" stroke="#9a968c" stroke-width="1.75" stroke-dasharray="3.5 2.5"/>
    <circle cx="32" cy="32" r="1.8" fill="#9a968c" opacity="0.65"/>
    <rect x="43" y="16" width="16" height="32" rx="5" fill="#eef5f0" stroke="#3d6b55" stroke-width="2"/>
    <ellipse cx="51" cy="32" rx="3.6" ry="5.2" stroke="#3d6b55" stroke-width="2.1" fill="none"/>
  </g>
  <!-- Word: geometric sans approximation -->
  <g fill="#1c1b19" transform="translate(44,10)">
    <!-- H -->
    <path d="M1 2v16M9 2v16M1 10h8" stroke="#1c1b19" stroke-width="2.2" stroke-linecap="round" fill="none"/>
    <!-- i -->
    <circle cx="14.5" cy="3.2" r="1.15" fill="#1c1b19"/>
    <path d="M14.5 7.5v10.5" stroke="#1c1b19" stroke-width="2.2" stroke-linecap="round"/>
    <!-- a -->
    <path d="M26 12.2a4.2 4.2 0 1 0 0 3.6M26 7.5v10.5" stroke="#1c1b19" stroke-width="2.1" stroke-linecap="round" fill="none"/>
    <!-- t -->
    <path d="M32 4.5v13.5M29.2 8h5.6" stroke="#1c1b19" stroke-width="2.1" stroke-linecap="round"/>
    <!-- o -->
    <ellipse cx="42.5" cy="12.8" rx="4" ry="5.2" stroke="#1c1b19" stroke-width="2.1" fill="none"/>
  </g>
</svg>
